[Header]
FileType HTR
DataType HTRS
FileVersion 1
NumSegments 64
NumFrames 4
DataFrameRate 30
EulerRotationOrder ZYX
CalibrationUnits mm
RotationUnits Degrees
GlobalAxisofGravity Y
BoneLengthAxis Y
ScaleFactor 1.0
[SegmentNames&Hierarchy]
Hips	GLOBAL
Spine	Hips
Spine1	Spine
Spine2	Spine1
Neck	Spine2
Head	Neck
LeftEye	Head
RightEye	Head
LeftShoulder	Spine2
LeftArm	LeftShoulder
LeftForeArm	LeftArm
LeftHand	LeftForeArm
LeftHandThumb1	LeftHand
LeftHandThumb2	LeftHandThumb1
LeftHandThumb3	LeftHandThumb2
LeftHandThumb4	LeftHandThumb3
LeftHandIndex1	LeftHand
LeftHandIndex2	LeftHandIndex1
LeftHandIndex3	LeftHandIndex2
LeftHandIndex4	LeftHandIndex3
LeftHandMiddle1	LeftHand
LeftHandMiddle2	LeftHandMiddle1
LeftHandMiddle3	LeftHandMiddle2
LeftHandMiddle4	LeftHandMiddle3
LeftHandRing1	LeftHand
LeftHandRing2	LeftHandRing1
LeftHandRing3	LeftHandRing2
LeftHandRing4	LeftHandRing3
LeftHandPinky1	LeftHand
LeftHandPinky2	LeftHandPinky1
LeftHandPinky3	LeftHandPinky2
LeftHandPinky4	LeftHandPinky3
RightShoulder	Spine2
RightArm	RightShoulder
RightForeArm	RightArm
RightHand	RightForeArm
RightHandPinky1	RightHand
RightHandPinky2	RightHandPinky1
RightHandPinky3	RightHandPinky2
RightHandPinky4	RightHandPinky3
RightHandRing1	RightHand
RightHandRing2	RightHandRing1
RightHandRing3	RightHandRing2
RightHandRing4	RightHandRing3
RightHandMiddle1	RightHand
RightHandMiddle2	RightHandMiddle1
RightHandMiddle3	RightHandMiddle2
RightHandMiddle4	RightHandMiddle3
RightHandIndex1	RightHand
RightHandIndex2	RightHandIndex1
RightHandIndex3	RightHandIndex2
RightHandIndex4	RightHandIndex3
RightHandThumb1	RightHand
RightHandThumb2	RightHandThumb1
RightHandThumb3	RightHandThumb2
RightHandThumb4	RightHandThumb3
LeftUpLeg	Hips
LeftLeg	LeftUpLeg
LeftFoot	LeftLeg
LeftToeBase	LeftFoot
RightUpLeg	Hips
RightLeg	RightUpLeg
RightFoot	RightLeg
RightToeBase	RightFoot
[BasePosition]
Hips	0	0	0	0	0	0	1
Spine	0	0	0	0	0	0	1
Spine1	0	0	0	0	0	0	1
Spine2	0	0	0	0	0	0	1
Neck	0	0	0	0	0	0	1
Head	0	0	0	0	0	0	1
LeftEye	0	0	0	0	0	0	1
RightEye	0	0	0	0	0	0	1
LeftShoulder	0	0	0	0	0	0	1
LeftArm	0	0	0	0	0	0	1
LeftForeArm	0	0	0	0	0	0	1
LeftHand	0	0	0	0	0	0	1
LeftHandThumb1	0	0	0	0	0	0	1
LeftHandThumb2	0	0	0	0	0	0	1
LeftHandThumb3	0	0	0	0	0	0	1
LeftHandThumb4	0	0	0	0	0	0	1
LeftHandIndex1	0	0	0	0	0	0	1
LeftHandIndex2	0	0	0	0	0	0	1
LeftHandIndex3	0	0	0	0	0	0	1
LeftHandIndex4	0	0	0	0	0	0	1
LeftHandMiddle1	0	0	0	0	0	0	1
LeftHandMiddle2	0	0	0	0	0	0	1
LeftHandMiddle3	0	0	0	0	0	0	1
LeftHandMiddle4	0	0	0	0	0	0	1
LeftHandRing1	0	0	0	0	0	0	1
LeftHandRing2	0	0	0	0	0	0	1
LeftHandRing3	0	0	0	0	0	0	1
LeftHandRing4	0	0	0	0	0	0	1
LeftHandPinky1	0	0	0	0	0	0	1
LeftHandPinky2	0	0	0	0	0	0	1
LeftHandPinky3	0	0	0	0	0	0	1
LeftHandPinky4	0	0	0	0	0	0	1
RightShoulder	0	0	0	0	0	0	1
RightArm	0	0	0	0	0	0	1
RightForeArm	0	0	0	0	0	0	1
RightHand	0	0	0	0	0	0	1
RightHandPinky1	0	0	0	0	0	0	1
RightHandPinky2	0	0	0	0	0	0	1
RightHandPinky3	0	0	0	0	0	0	1
RightHandPinky4	0	0	0	0	0	0	1
RightHandRing1	0	0	0	0	0	0	1
RightHandRing2	0	0	0	0	0	0	1
RightHandRing3	0	0	0	0	0	0	1
RightHandRing4	0	0	0	0	0	0	1
RightHandMiddle1	0	0	0	0	0	0	1
RightHandMiddle2	0	0	0	0	0	0	1
RightHandMiddle3	0	0	0	0	0	0	1
RightHandMiddle4	0	0	0	0	0	0	1
RightHandIndex1	0	0	0	0	0	0	1
RightHandIndex2	0	0	0	0	0	0	1
RightHandIndex3	0	0	0	0	0	0	1
RightHandIndex4	0	0	0	0	0	0	1
RightHandThumb1	0	0	0	0	0	0	1
RightHandThumb2	0	0	0	0	0	0	1
RightHandThumb3	0	0	0	0	0	0	1
RightHandThumb4	0	0	0	0	0	0	1
LeftUpLeg	0	0	0	0	0	0	1
LeftLeg	0	0	0	0	0	0	1
LeftFoot	0	0	0	0	0	0	1
LeftToeBase	0	0	0	0	0	0	1
RightUpLeg	0	0	0	0	0	0	1
RightLeg	0	0	0	0	0	0	1
RightFoot	0	0	0	0	0	0	1
RightToeBase	0	0	0	0	0	0	1
[Hips]
45	-72.17623138	718.5814209	-511.2015076	-27.2710743	0.8501889706	-3.644088745	1.0
46	-68.79759216	813.6558838	-502.2602844	-36.33742142	-0.1037667692	-4.043727875	1.0
47	-66.20191956	933.5821533	-506.874115	-46.82268906	-0.7042390108	-1.921496749	1.0
48	-65.49021912	1028.862915	-532.5673828	-57.86188126	0.4203296006	-0.6248015761	1.0
[Spine]
45	0	101.8159943	1.315000057	4.268773079	-0.8402143717	-0.393009603	1.0
46	0	101.8159943	1.315000057	2.504664898	-1.421805739	-0.04991154745	1.0
47	0	101.8159943	1.315000057	0.4293548465	-1.206572413	-0.1528649926	1.0
48	0	101.8159943	1.315000057	-0.8821957707	-1.557423353	-0.3457724452	1.0
[Spine1]
45	0	100.8349991	-10.00800037	8.546667099	-1.582576752	-1.311176419	1.0
46	0	100.8349991	-10.00800037	5.016626835	-2.692106485	-0.5323345065	1.0
47	0	100.8349991	-10.00800037	0.8626320958	-2.356916428	-0.3447113037	1.0
48	0	100.8349991	-10.00800037	-1.762086749	-3.349778414	-0.1736828089	1.0
[Spine2]
45	0	91	-13.73399925	8.546670914	-1.582577705	-1.311177135	1.0
46	0	91	-13.73399925	5.016631126	-2.692107201	-0.532335639	1.0
47	0	91	-13.73399925	0.8626415133	-2.356915951	-0.3447116911	1.0
48	0	91	-13.73399925	-1.762068868	-3.349779367	-0.1736845076	1.0
[Neck]
45	0	166.7169952	-25.16200066	-11.47613049	1.898891687	-7.813128471	1.0
46	0	166.7169952	-25.16200066	-11.93703365	1.890908718	-10.37602139	1.0
47	0	166.7169952	-25.16200066	-10.76191711	1.351199389	-9.275315285	1.0
48	0	166.7169952	-25.16200066	-8.132667542	1.134865761	-6.292816639	1.0
[Head]
45	0	96.17900085	16.84999847	-33.13716888	10.36286163	12.11941624	1.0
46	0	96.17900085	16.84999847	-19.23098946	6.632284641	18.50663948	1.0
47	0	96.17900085	16.84999847	-10.84424686	0.5669151545	14.76932907	1.0
48	0	96.17900085	16.84999847	-16.85353088	-0.7027853131	3.746610641	1.0
[LeftEye]
45	30.6760006	64.09500122	92.83599854	0	0	0	1.0
46	30.6760006	64.09500122	92.83599854	0	0	0	1.0
47	30.6760006	64.09500122	92.83599854	0	0	0	1.0
48	30.6760006	64.09500122	92.83599854	0	0	0	1.0
[RightEye]
45	-30.6760006	64.09500122	92.83499908	0	0	0	1.0
46	-30.6760006	64.09500122	92.83499908	0	0	0	1.0
47	-30.6760006	64.09500122	92.83499908	0	0	0	1.0
48	-30.6760006	64.09500122	92.83499908	0	0	0	1.0
[LeftShoulder]
45	45.70400238	109.4599991	-26.28000069	-1.171325922	1.829782128	9.782150269	1.0
46	45.70400238	109.4599991	-26.28000069	-1.986902475	5.632503986	17.70597649	1.0
47	45.70400238	109.4599991	-26.28000069	0.3500272036	4.712725163	19.0684166	1.0
48	45.70400238	109.4599991	-26.28000069	1.460148692	-1.224347234	15.68354034	1.0
[LeftArm]
45	105.923996	-5.24600029	-22.32099915	-109.6540146	-36.74866104	49.70722961	1.0
46	105.923996	-5.24600029	-22.32099915	-122.3791656	-40.33765411	49.88777542	1.0
47	105.923996	-5.24600029	-22.32099915	-127.9503326	-50.80870056	51.24337769	1.0
48	105.923996	-5.24600029	-22.32099915	-103.4766388	-59.99275208	33.58523941	1.0
[LeftForeArm]
45	278.414978	-0.0009999999311	0	-389.9646606	-88.06415558	387.6495056	1.0
46	278.414978	-0.0009999999311	0	-530.7687378	-82.28925323	529.0111084	1.0
47	278.414978	-0.0009999999311	0	-535.0970459	-75.724617	533.8029785	1.0
48	278.414978	-0.0009999999311	0	-536.697876	-74.11971283	535.6925659	1.0
[LeftHand]
45	283.2879944	0	0	-39.06886292	40.48940659	-1.112207532	1.0
46	283.2879944	0	0	-38.20913696	42.44809341	0.1780457795	1.0
47	283.2879944	0	0	-22.57887459	36.08823776	12.95594406	1.0
48	283.2879944	0	0	-7.926614761	29.04278755	27.00352478	1.0
[LeftHandThumb1]
45	24.6609993	-15.75	26.8239994	-2.633952141	1.059473872	13.2560854	1.0
46	24.6609993	-15.75	26.8239994	-1.918738008	1.888697624	13.4469595	1.0
47	24.6609993	-15.75	26.8239994	-1.192303181	2.724081278	13.6561842	1.0
48	24.6609993	-15.75	26.8239994	-0.4789119363	3.528849602	13.87842369	1.0
[LeftHandThumb2]
45	32.29800034	-18.64699936	18.64699936	3.954092741	10.77072239	2.023895502	1.0
46	32.29800034	-18.64699936	18.64699936	4.075387001	12.10340405	2.786032915	1.0
47	32.29800034	-18.64699936	18.64699936	4.190483093	13.44849491	3.551481724	1.0
48	32.29800034	-18.64699936	18.64699936	4.298219681	14.75252628	4.285038948	1.0
[LeftHandThumb3]
45	26.52600098	-15.31499958	15.31499958	3.601811159e-06	-8.438974328e-05	-6.943767221e-05	1.0
46	26.52600098	-15.31499958	15.31499958	3.601811159e-06	-8.438974328e-05	-6.943767221e-05	1.0
47	26.52600098	-15.31499958	15.31499958	3.601811159e-06	-8.438974328e-05	-6.943767221e-05	1.0
48	26.52600098	-15.31499958	15.31499958	3.601811159e-06	-8.438974328e-05	-6.943767221e-05	1.0
[LeftHandThumb4]
45	19.54599953	-11.28499985	11.28499985	0	0	0	1.0
46	19.54599953	-11.28499985	11.28499985	0	0	0	1.0
47	19.54599953	-11.28499985	11.28499985	0	0	0	1.0
48	19.54599953	-11.28499985	11.28499985	0	0	0	1.0
[LeftHandIndex1]
45	91.09299469	-5.170999527	22.60099792	-0.08426292241	-1.299396992	-11.23426819	1.0
46	91.09299469	-5.170999527	22.60099792	-0.1356964111	-1.458133578	-12.00175571	1.0
47	91.09299469	-5.170999527	22.60099792	-0.1866115034	-1.61931479	-12.77663803	1.0
48	91.09299469	-5.170999527	22.60099792	-0.2349521667	-1.776545763	-13.52842808	1.0
[LeftHandIndex2]
45	36.76399994	0	0	-0.6842237711	-0.4406506717	-25.97973633	1.0
46	36.76399994	0	0	-0.8059265614	-0.8116437197	-28.71479225	1.0
47	36.76399994	0	0	-0.9104866385	-1.191881537	-31.47662163	1.0
48	36.76399994	0	0	-0.9943373799	-1.565210462	-34.15658188	1.0
[LeftHandIndex3]
45	28.83100128	0	0	-1.432096042e-06	3.907105395e-07	1.552835329e-06	1.0
46	28.83100128	0	0	-1.432096042e-06	3.907105395e-07	1.552835329e-06	1.0
47	28.83100128	0	0	-1.432096042e-06	3.907105395e-07	1.552835329e-06	1.0
48	28.83100128	0	0	-1.432096042e-06	3.907105395e-07	1.552835329e-06	1.0
[LeftHandIndex4]
45	23.92700005	0	0	0	0	0	1.0
46	23.92700005	0	0	0	0	0	1.0
47	23.92700005	0	0	0	0	0	1.0
48	23.92700005	0	0	0	0	0	1.0
[LeftHandMiddle1]
45	95.33399963	0	0	-0.8324410915	-0.259919852	-19.8909111	1.0
46	95.33399963	0	0	-0.9092617631	-0.3940554857	-21.05601883	1.0
47	95.33399963	0	0	-0.9840570688	-0.5311035514	-22.23257637	1.0
48	95.33399963	0	0	-1.053960562	-0.6655375361	-23.37422752	1.0
[LeftHandMiddle2]
45	36.98199844	0	0	-0.5430036187	-1.91301322	-23.88834953	1.0
46	36.98199844	0	0	-0.6083373427	-2.261030197	-26.78708076	1.0
47	36.98199844	0	0	-0.6560909748	-2.615441561	-29.71508789	1.0
48	36.98199844	0	0	-0.6851041317	-2.96121192	-32.55712128	1.0
[LeftHandMiddle3]
45	29.50900078	0	0	0	-3.180554719e-15	-7.951386796e-16	1.0
46	29.50900078	0	0	0	-3.180554719e-15	-7.951386796e-16	1.0
47	29.50900078	0	0	0	-3.180554719e-15	-7.951386796e-16	1.0
48	29.50900078	0	0	0	-3.180554719e-15	-7.951386796e-16	1.0
[LeftHandMiddle4]
45	28.3390007	0	0	0	0	0	1.0
46	28.3390007	0	0	0	0	0	1.0
47	28.3390007	0	0	0	0	0	1.0
48	28.3390007	0	0	0	0	0	1.0
[LeftHandRing1]
45	91.04499817	-0.4390000105	-18.65100098	-3.023156404	5.250360489	-31.10122108	1.0
46	91.04499817	-0.4390000105	-18.65100098	-3.062204123	5.044520378	-32.36540222	1.0
47	91.04499817	-0.4390000105	-18.65100098	-3.098074675	4.835456848	-33.64162445	1.0
48	91.04499817	-0.4390000105	-18.65100098	-3.129408598	4.631541729	-34.87964249	1.0
[LeftHandRing2]
45	31.54000092	0	0	1.696036458	-2.507347822	-32.82568741	1.0
46	31.54000092	0	0	1.931695819	-2.59362793	-35.73590469	1.0
47	31.54000092	0	0	2.173915625	-2.668355227	-38.67569351	1.0
48	31.54000092	0	0	2.412321091	-2.728918791	-41.52902603	1.0
[LeftHandRing3]
45	29.37700081	0	0	1.590277359e-15	3.180554719e-15	-7.951386796e-16	1.0
46	29.37700081	0	0	1.590277359e-15	3.180554719e-15	-7.951386796e-16	1.0
47	29.37700081	0	0	1.590277359e-15	3.180554719e-15	-7.951386796e-16	1.0
48	29.37700081	0	0	1.590277359e-15	3.180554719e-15	-7.951386796e-16	1.0
[LeftHandRing4]
45	26.47500038	0	0	0	0	0	1.0
46	26.47500038	0	0	0	0	0	1.0
47	26.47500038	0	0	0	0	0	1.0
48	26.47500038	0	0	0	0	0	1.0
[LeftHandPinky1]
45	80.77799988	-4.887000084	-38.06099701	-3.814460993	10.31426811	-29.82493973	1.0
46	80.77799988	-4.887000084	-38.06099701	-3.822222233	9.926486015	-31.08693886	1.0
47	80.77799988	-4.887000084	-38.06099701	-3.826889753	9.533519745	-32.36047745	1.0
48	80.77799988	-4.887000084	-38.06099701	-3.827899218	9.151104927	-33.59500504	1.0
[LeftHandPinky2]
45	36	0	0	4.641099453	-4.556976318	-43.05854797	1.0
46	36	0	0	4.879958153	-4.4512043	-44.75746918	1.0
47	36	0	0	5.11784935	-4.337062836	-46.47294998	1.0
48	36	0	0	5.345437527	-4.219319344	-48.13903046	1.0
[LeftHandPinky3]
45	21.14200211	0	0	3.226109357e-06	2.925280342e-06	-5.739977951e-06	1.0
46	21.14200211	0	0	3.226109357e-06	2.925280342e-06	-5.739977951e-06	1.0
47	21.14200211	0	0	3.226109357e-06	2.925280342e-06	-5.739977951e-06	1.0
48	21.14200211	0	0	3.226109357e-06	2.925280342e-06	-5.739977951e-06	1.0
[LeftHandPinky4]
45	19.75699997	0	0	0	0	0	1.0
46	19.75699997	0	0	0	0	0	1.0
47	19.75699997	0	0	0	0	0	1.0
48	19.75699997	0	0	0	0	0	1.0
[RightShoulder]
45	-45.70000076	109.4620056	-26.28000069	6.437134266	-12.41505527	-9.248455048	1.0
46	-45.70000076	109.4620056	-26.28000069	9.703596115	-16.21813774	-14.56499672	1.0
47	-45.70000076	109.4620056	-26.28000069	8.869829178	-13.30552292	-16.02501869	1.0
48	-45.70000076	109.4620056	-26.28000069	7.252744198	-8.130335808	-16.49982262	1.0
[RightArm]
45	-105.9280014	-5.248000145	-22.32099915	-158.6704254	51.46161652	-88.07211304	1.0
46	-105.9280014	-5.248000145	-22.32099915	-168.8905334	54.01547623	-89.84615326	1.0
47	-105.9280014	-5.248000145	-22.32099915	-148.840744	68.77870941	-70.99229431	1.0
48	-105.9280014	-5.248000145	-22.32099915	-94.77964783	71.52206421	-23.65333748	1.0
[RightForeArm]
45	-278.414978	0	0	-6.656125069	75.58323669	-6.592439651	1.0
46	-278.414978	0	0	-137.3617706	86.87633514	-135.7863464	1.0
47	-278.414978	0	0	-172.5815277	80.11230469	-171.4355011	1.0
48	-278.414978	0	0	-156.7501068	88.27805328	-155.8587341	1.0
[RightHand]
45	-283.2879944	0	0.0009999999311	15.36241722	7.695619106	-9.807997704	1.0
46	-283.2879944	0	0.0009999999311	34.18981552	29.16699028	-12.18319321	1.0
47	-283.2879944	0	0.0009999999311	47.56588745	37.27594757	-9.080600739	1.0
48	-283.2879944	0	0.0009999999311	49.3792572	36.75119781	-11.62988949	1.0
[RightHandPinky1]
45	-80.76699829	-4.885000229	-38.06000137	-0.7742580175	-9.803420067	33.11751556	1.0
46	-80.76699829	-4.885000229	-38.06000137	-0.7998312712	-9.259317398	35.32593918	1.0
47	-80.76699829	-4.885000229	-38.06000137	-0.8148861527	-8.717003822	37.51184082	1.0
48	-80.76699829	-4.885000229	-38.06000137	-0.8189194798	-8.203165054	39.57167816	1.0
[RightHandPinky2]
45	-36	0	0.0009999999311	5.495501518	6.71089077	42.92459106	1.0
46	-36	0	0.0009999999311	5.797128201	6.672862053	44.61682892	1.0
47	-36	0	0.0009999999311	6.094901562	6.626193047	46.2947731	1.0
48	-36	0	0.0009999999311	6.374844551	6.574073315	47.88096619	1.0
[RightHandPinky3]
45	-21.14200211	0	0	-1.590277359e-15	0	-7.951386796e-16	1.0
46	-21.14200211	0	0	-1.590277359e-15	0	-7.951386796e-16	1.0
47	-21.14200211	0	0	-1.590277359e-15	0	-7.951386796e-16	1.0
48	-21.14200211	0	0	-1.590277359e-15	0	-7.951386796e-16	1.0
[RightHandPinky4]
45	-19.75699997	0	0	0	0	0	1.0
46	-19.75699997	0	0	0	0	0	1.0
47	-19.75699997	0	0	0	0	0	1.0
48	-19.75699997	0	0	0	0	0	1.0
[RightHandRing1]
45	-91.03599548	-0.4390000105	-18.65100098	-1.75666368	-5.408301353	32.82680511	1.0
46	-91.03599548	-0.4390000105	-18.65100098	-1.853946924	-5.214693069	34.87397385	1.0
47	-91.03599548	-0.4390000105	-18.65100098	-1.940923214	-5.020257473	36.90187836	1.0
48	-91.03599548	-0.4390000105	-18.65100098	-2.014681101	-4.834733963	38.81455231	1.0
[RightHandRing2]
45	-31.54000092	0	0	1.792322755	3.146840096	31.47564888	1.0
46	-31.54000092	0	0	2.055222511	3.294630051	34.27192688	1.0
47	-31.54000092	0	0	2.322777748	3.428077221	37.04428482	1.0
48	-31.54000092	0	0	2.580842972	3.542043686	39.66117096	1.0
[RightHandRing3]
45	-29.37700081	0	0	5.740008078e-07	-7.531911024e-07	-2.69121324e-06	1.0
46	-29.37700081	0	0	5.740008078e-07	-7.531911024e-07	-2.69121324e-06	1.0
47	-29.37700081	0	0	5.740008078e-07	-7.531911024e-07	-2.69121324e-06	1.0
48	-29.37700081	0	0	5.740008078e-07	-7.531911024e-07	-2.69121324e-06	1.0
[RightHandRing4]
45	-26.47500038	0	0	0	0	0	1.0
46	-26.47500038	0	0	0	0	0	1.0
47	-26.47500038	0	0	0	0	0	1.0
48	-26.47500038	0	0	0	0	0	1.0
[RightHandMiddle1]
45	-95.32500458	0	0	-2.090760469	0.4801751375	21.80512428	1.0
46	-95.32500458	0	0	-2.15770483	0.6067781448	22.88265038	1.0
47	-95.32500458	0	0	-2.221681833	0.7334637642	23.95041847	1.0
48	-95.32500458	0	0	-2.27991128	0.8540986776	24.95787239	1.0
[RightHandMiddle2]
45	-36.98199844	0	0	-0.7705945969	1.909128428	28.36250305	1.0
46	-36.98199844	0	0	-0.8506655097	2.283736229	31.95722961	1.0
47	-36.98199844	0	0	-0.9063042998	2.659292459	35.520401	1.0
48	-36.98199844	0	0	-0.9373675585	3.016100883	38.88332367	1.0
[RightHandMiddle3]
45	-29.50900078	0	0	1.856611448e-06	-0.002022909233	1.577868488e-06	1.0
46	-29.50900078	0	0	1.856611448e-06	-0.002022909233	1.577868488e-06	1.0
47	-29.50900078	0	0	1.856611448e-06	-0.002022909233	1.577868488e-06	1.0
48	-29.50900078	0	0	1.856611448e-06	-0.002022909233	1.577868488e-06	1.0
[RightHandMiddle4]
45	-28.3390007	0	0.0009999999311	0	0	0	1.0
46	-28.3390007	0	0.0009999999311	0	0	0	1.0
47	-28.3390007	0	0.0009999999311	0	0	0	1.0
48	-28.3390007	0	0.0009999999311	0	0	0	1.0
[RightHandIndex1]
45	-91.08300018	-5.167999744	22.60099792	-1.365068078	1.413334608	11.98019409	1.0
46	-91.08300018	-5.167999744	22.60099792	-1.432373881	1.609018683	12.97937393	1.0
47	-91.08300018	-5.167999744	22.60099792	-1.497357845	1.804358602	13.96928883	1.0
48	-91.08300018	-5.167999744	22.60099792	-1.556989074	1.989912033	14.90309715	1.0
[RightHandIndex2]
45	-36.76399994	0	0	-0.7539931536	-0.2023214847	25.05015945	1.0
46	-36.76399994	0	0	-0.8936566114	0.0837193206	27.53024864	1.0
47	-36.76399994	0	0	-1.019523501	0.3730058372	29.98753357	1.0
48	-36.76399994	0	0	-1.126856327	0.6506429315	32.30575943	1.0
[RightHandIndex3]
45	-28.83100128	0	0	-3.180554719e-15	0	0	1.0
46	-28.83100128	0	0	-3.180554719e-15	0	0	1.0
47	-28.83100128	0	0	-3.180554719e-15	0	0	1.0
48	-28.83100128	0	0	-3.180554719e-15	0	0	1.0
[RightHandIndex4]
45	-23.92700005	0	0	0	0	0	1.0
46	-23.92700005	0	0	0	0	0	1.0
47	-23.92700005	0	0	0	0	0	1.0
48	-23.92700005	0	0	0	0	0	1.0
[RightHandThumb1]
45	-24.64799881	-15.72700024	26.82600021	-5.21594286	0.08135098219	-12.81839561	1.0
46	-24.64799881	-15.72700024	26.82600021	-5.280608654	-0.4121412635	-12.83669376	1.0
47	-24.64799881	-15.72700024	26.82600021	-5.340343475	-0.899271369	-12.85371113	1.0
48	-24.64799881	-15.72700024	26.82600021	-5.387717247	-1.353037596	-12.87461472	1.0
[RightHandThumb2]
45	-32.29800034	-18.64699936	18.64699936	7.177565098	-11.85257053	-2.203462124	1.0
46	-32.29800034	-18.64699936	18.64699936	8.302639961	-13.52019787	-3.1536057	1.0
47	-32.29800034	-18.64699936	18.64699936	9.42782402	-15.16894341	-4.15123415	1.0
48	-32.29800034	-18.64699936	18.64699936	10.50400162	-16.71910095	-5.134520054	1.0
[RightHandThumb3]
45	-26.52600098	-15.31399918	15.31399918	-3.81245151e-08	-0.00121095567	-0.001221005921	1.0
46	-26.52600098	-15.31399918	15.31399918	-3.81245151e-08	-0.00121095567	-0.001221005921	1.0
47	-26.52600098	-15.31399918	15.31399918	-3.81245151e-08	-0.00121095567	-0.001221005921	1.0
48	-26.52600098	-15.31399918	15.31399918	-3.81245151e-08	-0.00121095567	-0.001221005921	1.0
[RightHandThumb4]
45	-19.54599953	-11.28499985	11.28499985	0	0	0	1.0
46	-19.54599953	-11.28499985	11.28499985	0	0	0	1.0
47	-19.54599953	-11.28499985	11.28499985	0	0	0	1.0
48	-19.54599953	-11.28499985	11.28499985	0	0	0	1.0
[LeftUpLeg]
45	82.07800293	-67.51699829	-15.99599934	-42.46730423	20.13174248	16.31520271	1.0
46	82.07800293	-67.51699829	-15.99599934	-24.40415955	21.62847137	22.04610252	1.0
47	82.07800293	-67.51699829	-15.99599934	-11.08071327	19.13571358	20.53585434	1.0
48	82.07800293	-67.51699829	-15.99599934	-7.970469475	15.15313435	16.26764107	1.0
[LeftLeg]
45	0	-443.7049866	2.845999956	89.52349091	0.1800799072	-8.175335884	1.0
46	0	-443.7049866	2.845999956	80.03372192	-2.721712112	-9.429207802	1.0
47	0	-443.7049866	2.845999956	70.93669891	-4.853786469	4.445288658	1.0
48	0	-443.7049866	2.845999956	72.4139328	-6.905145168	16.55660057	1.0
[LeftFoot]
45	0	-444.2789917	-29.8219986	-15.05301571	-4.727496624	-5.012273312	1.0
46	0	-444.2789917	-29.8219986	-3.182240009	-5.281527996	-13.20463562	1.0
47	0	-444.2789917	-29.8219986	9.821187019	-5.586137772	-11.74901867	1.0
48	0	-444.2789917	-29.8219986	19.17087746	-5.684397221	-3.573392391	1.0
[LeftToeBase]
45	0	-87.28699493	107.1060028	-4.516191006	4.493980214e-06	-2.432543624e-06	1.0
46	0	-87.28699493	107.1060028	-4.175909519	9.96705694e-06	2.841706646e-06	1.0
47	0	-87.28699493	107.1060028	0.6941574812	3.382317573e-06	-6.427610515e-06	1.0
48	0	-87.28699493	107.1060028	6.265061378	1.248198441e-05	-1.313735356e-05	1.0
[RightUpLeg]
45	-82.07800293	-67.51699829	-15.99599934	-43.18366623	-13.82013893	1.637383819	1.0
46	-82.07800293	-67.51699829	-15.99599934	-25.1926403	-14.15519714	-1.297809839	1.0
47	-82.07800293	-67.51699829	-15.99599934	-11.66802406	-8.661209106	-4.404209137	1.0
48	-82.07800293	-67.51699829	-15.99599934	-7.637300014	-2.095028877	-5.753809929	1.0
[RightLeg]
45	0	-443.7049866	2.861999989	87.3445816	0.1993003935	2.696465254	1.0
46	0	-443.7049866	2.861999989	76.7496109	2.08838439	5.541812897	1.0
47	0	-443.7049866	2.861999989	67.24966431	2.712364674	3.247827291	1.0
48	0	-443.7049866	2.861999989	68.76293182	0.689127326	-1.849367857	1.0
[RightFoot]
45	0	-444.2770081	-29.83799934	-21.28416252	-0.8774080873	-4.789333344	1.0
46	0	-444.2770081	-29.83799934	-22.88728905	-1.101144195	-6.254850864	1.0
47	0	-444.2770081	-29.83799934	-21.48465919	-1.663824797	-8.582474709	1.0
48	0	-444.2770081	-29.83799934	-22.11391449	-0.7313276529	-10.2684164	1.0
[RightToeBase]
45	0	-87.28699493	107.1060028	-7.518546104	-2.564744364e-06	-1.791382942e-06	1.0
46	0	-87.28699493	107.1060028	-10.70760727	-1.705566092e-06	-5.84995496e-06	1.0
47	0	-87.28699493	107.1060028	-10.12404728	-1.021258754e-06	1.304242119e-06	1.0
48	0	-87.28699493	107.1060028	-3.358343124	-1.974835158e-07	-5.998891993e-06	1.0
[EndOfFile]
